<xml version="1.0" encoding="UTF-8">
<svg width="14px" height="14px" viewBox="0 0 14 14" version="1.1" xmlns="http://www.w3.org/2000/svg" xmlns:xlink="http://www.w3.org/1999/xlink">
    <title>icon-facebook-square</title>
    <g id="Symbols" stroke="none" stroke-width="1" fill="none" fill-rule="evenodd">
        <g id="candidate-bio-links" transform="translate(0.000000, -53.000000)" fill="#006EA3" fill-rule="nonzero">
            <g id="facebook" transform="translate(0.000000, 48.000000)">
                <path d="M7.47396581,19.000014 L7.47396581,13.5768315 L5.65104732,13.5768315 L5.65104732,11.462246 L7.47396581,11.462246 L7.47396581,9.90365074 C7.47396581,8.09896143 8.58594609,7.11458545 10.1992289,7.11458545 C10.9648547,7.11458545 11.63022,7.169273 11.8216264,7.19661678 L11.8216264,9.08333742 L10.7096461,9.09245201 C9.82553066,9.09245201 9.66146799,9.50260867 9.66146799,10.1132864 L9.66146799,11.462246 L11.7487097,11.462246 L11.4752719,13.5768315 L9.66146799,13.5768315 L9.66146799,19.000014 L11.3750114,19.000014 C12.8242316,19.000014 14.000014,17.8242316 14.000014,16.3750114 L14.000014,7.62500263 C14.000014,6.17578243 12.8242316,5 11.3750114,5 L2.62500263,5 C1.17578243,5 0,6.17578243 0,7.62500263 L0,16.3750114 C0,17.8242316 1.17578243,19.000014 2.62500263,19.000014 L7.47396581,19.000014 Z" id="icon-facebook-square"></path>
            </g>
        </g>
    </g>
</svg>