<xml version="1.0" encoding="UTF-8">
<svg width="14px" height="14px" viewBox="0 0 14 14" version="1.1" xmlns="http://www.w3.org/2000/svg" xmlns:xlink="http://www.w3.org/1999/xlink">
    <title>icon-instagram</title>
    <g id="Symbols" stroke="none" stroke-width="1" fill="none" fill-rule="evenodd">
        <g id="candidate-bio-links" transform="translate(0.000000, -77.000000)" fill="#006EA3" fill-rule="nonzero">
            <g id="instagram" transform="translate(0.000000, 72.000000)">
                <path d="M9.88978781,18.9548489 C11.0108697,18.900162 12.0043487,18.6449564 12.8246526,17.8246526 C13.6449564,17.0043487 13.900162,16.0108697 13.9548489,14.8897878 C13.9958641,14.1651861 14.000991,13.4457113 14.000991,12.7236731 L14.0004213,12.0004955 C14.0004213,11.0343599 14.0095358,10.0773388 13.9548489,9.11120319 C13.900162,7.99012132 13.6449564,6.99664226 12.8246526,6.17633845 C12.0043487,5.35603464 11.0108697,5.10082901 9.88978781,5.04614209 C9.16518611,5.0051269 8.44571131,5 7.72367306,5 L7.0004955,5.00056966 C6.0343599,5.00056966 5.07733879,4.99145517 4.11120319,5.04614209 C2.99012132,5.10082901 1.99664226,5.35603464 1.17633845,6.17633845 C0.35603464,6.99664226 0.10082901,7.99012132 0.0461420893,9.11120319 C0.00512689881,9.83580489 0,10.5552797 0,11.2773179 L0.000569655424,12.0004955 C0.000569655424,12.9666311 -0.00854483135,13.9236522 0.0461420893,14.8897878 C0.10082901,16.0108697 0.35603464,17.0043487 1.17633845,17.8246526 C1.99664226,18.6449564 2.99012132,18.900162 4.11120319,18.9548489 C4.83580489,18.9958641 5.55527969,19.000991 6.27731794,19.000991 L7.0004955,19.0004213 C7.9666311,19.0004213 8.92365221,19.0095358 9.88978781,18.9548489 Z M2.87163299,17.4600731 C2.55262595,17.3324703 2.3156493,17.177524 2.06955815,16.9314328 C1.82346701,16.6853417 1.66852074,16.448365 1.54091792,16.129358 C1.17633845,15.2087948 1.25836883,13.021318 1.25836883,12.0004955 C1.25836883,10.979673 1.17633845,8.79219615 1.54091792,7.87163299 C1.66852074,7.55262595 1.82346701,7.3156493 2.06955815,7.06955815 C2.3156493,6.82346701 2.55262595,6.66852074 2.87163299,6.54091792 C3.79219615,6.17633845 5.97967298,6.25836883 7.0004955,6.25836883 C8.02131802,6.25836883 10.2087948,6.17633845 11.129358,6.54091792 C11.448365,6.66852074 11.6853417,6.82346701 11.9314328,7.06955815 C12.177524,7.3156493 12.3324703,7.55262595 12.4600731,7.87163299 C12.8246526,8.79219615 12.7426222,10.979673 12.7426222,12.0004955 C12.7426222,13.021318 12.8246526,15.2087948 12.4600731,16.129358 C12.3324703,16.448365 12.177524,16.6853417 11.9314328,16.9314328 C11.6853417,17.177524 11.448365,17.3324703 11.129358,17.4600731 C10.2087948,17.8246526 8.02131802,17.7426222 7.0004955,17.7426222 C5.97967298,17.7426222 3.79219615,17.8246526 2.87163299,17.4600731 Z M10.7374351,9.1020887 C11.2022739,9.1020887 11.5759679,8.72839475 11.5759679,8.26355592 C11.5759679,7.7987171 11.2022739,7.42502314 10.7374351,7.42502314 C10.2725963,7.42502314 9.8989023,7.7987171 9.8989023,8.26355592 C9.8989023,8.72839475 10.2725963,9.1020887 10.7374351,9.1020887 Z M7.0004955,15.5916033 C8.98745362,15.5916033 10.5916033,13.9874536 10.5916033,12.0004955 C10.5916033,10.0135374 8.98745362,8.40938771 7.0004955,8.40938771 C5.01353738,8.40938771 3.40938771,10.0135374 3.40938771,12.0004955 C3.40938771,13.9874536 5.01353738,15.5916033 7.0004955,15.5916033 Z M7.0004955,14.3338041 C5.71535286,14.3338041 4.66718689,13.2856381 4.66718689,12.0004955 C4.66718689,10.7153529 5.71535286,9.66718689 7.0004955,9.66718689 C8.28563814,9.66718689 9.33380411,10.7153529 9.33380411,12.0004955 C9.33380411,13.2856381 8.28563814,14.3338041 7.0004955,14.3338041 Z" id=""></path>
            </g>
        </g>
    </g>
</svg>